<?xml version="1.0" encoding="utf-8"?>
<!-- Generator: Adobe Illustrator 26.0.1, SVG Export Plug-In . SVG Version: 6.00 Build 0)  -->
<svg version="1.1" id="Layer_1" xmlns="http://www.w3.org/2000/svg" xmlns:xlink="http://www.w3.org/1999/xlink" x="0px" y="0px"
	 viewBox="0 0 20.3 22.5" style="enable-background:new 0 0 20.3 22.5;" xml:space="preserve">
<style type="text/css">
	.st0{fill:#F6B51E;}
</style>
<path class="st0" d="M10.3,17.9c-1.4,0-2.8-0.6-3.8-1.6s-1.6-2.4-1.6-3.8s0.6-2.8,1.6-3.8s2.4-1.6,3.8-1.6s2.8,0.6,3.8,1.6
	s1.6,2.4,1.6,3.8s-0.6,2.8-1.6,3.8S11.7,17.9,10.3,17.9z M10.3,16.1c1,0,1.9-0.4,2.5-1.1c0.7-0.7,1.1-1.6,1.1-2.5
	c0-1-0.4-1.9-1.1-2.5c-0.7-0.7-1.6-1.1-2.5-1.1c-1,0-1.9,0.4-2.5,1.1c-0.7,0.7-1.1,1.6-1.1,2.5c0,1,0.4,1.9,1.1,2.5
	C8.4,15.7,9.4,16.1,10.3,16.1z M9.4,2.6h1.8v2.7H9.4V2.6z M9.4,19.7h1.8v2.7H9.4V19.7z M2.7,6.1l1.2-1.2l2,1.9L4.6,8L2.7,6.1
	L2.7,6.1z M14.8,18.2l1.3-1.3l1.9,1.9l-1.3,1.3L14.8,18.2z M16.7,4.9l1.2,1.2L16,8l-1.3-1.3L16.7,4.9L16.7,4.9z M4.6,16.9l1.3,1.3
	l-2,1.9l-1.3-1.3L4.6,16.9z M20.2,11.6v1.8h-2.7v-1.8H20.2z M3.1,11.6v1.8H0.4v-1.8H3.1z"/>
</svg>
