<?xml version="1.0" encoding="utf-8"?>
<!-- Generator: Adobe Illustrator 26.0.1, SVG Export Plug-In . SVG Version: 6.00 Build 0)  -->
<svg version="1.1" id="Layer_1" xmlns="http://www.w3.org/2000/svg" xmlns:xlink="http://www.w3.org/1999/xlink" x="0px" y="0px"
	 viewBox="0 0 512 512" style="enable-background:new 0 0 512 512;" xml:space="preserve">
<style type="text/css">
	.st0{stroke:#000000;stroke-width:6;stroke-miterlimit:10;}
	.st1{stroke:#000000;stroke-width:13;stroke-miterlimit:10;}
</style>
<g>
	<g>
		<g>
			<path class="st0" d="M309.6,234.8l-6.4,36.4c-1,5.6,1.2,11.3,5.9,14.6c2.6,1.8,5.4,2.9,8.8,2.9c2.4,0,4.7-0.6,7-1.6l32.8-17.3
				l32.7,17.3c2.1,1.2,4.6,1.6,7,1.6c3.1,0,6.2-1.1,8.8-2.9c4.6-3.3,6.9-8.8,5.9-14.4l-6.4-36.4l26.6-25.8c4.1-3.9,5.4-9.7,3.8-15.2
				s-6.4-9.3-12-10l-36.6-5.3L371,145.3c-2.6-5.2-7.5-8.2-13.2-8.2c-5.6,0-10.8,3.2-13.2,8.2l-16.5,33.2l-36.6,5.3
				c-5.6,0.8-10.1,4.6-12,10c-1.8,5.4-0.3,11.3,3.8,15.2L309.6,234.8z M336.2,197.5c3.3-0.5,6.2-2.6,7.5-5.4l13.8-28.3l13.8,28.3
				c1.3,2.9,4.2,5,7.5,5.4l31.1,4.6L387.8,224c-2.3,2.3-3.5,5.6-2.9,8.8l5.3,30.9L362.5,249c-1.3-0.8-3.1-1.2-4.6-1.2
				s-3.2,0.5-4.6,1.2l-27.8,14.7l5.2-30.9c0.5-3.2-0.5-6.5-2.9-8.8l-22.4-21.9L336.2,197.5z"/>
			<path class="st1" d="M409.5,395.1c-6.5,0.8-13,1.1-19.5,1.1c-42.4,0-83.5-15.1-115.8-42.6c-2.7-2.3-6.6-1.9-8.9,0.8
				s-1.9,6.6,0.8,8.9c34.6,29.4,78.6,45.8,124,45.8c0.5,0,1,0,1.4,0c-32.6,24.7-72.2,38.2-113.5,38.2
				c-103.4,0-187.7-84.2-187.7-187.7c0-99.7,78-181.5,176.3-187.4c-42.7,36.2-67.7,89.4-67.7,145.9c0,49,18.5,95.6,52.2,131.2
				c2.4,2.5,6.4,2.7,9,0.3c2.5-2.4,2.7-6.4,0.3-9c-31.5-33.2-48.8-76.8-48.8-122.5c0-58.8,28.9-113.9,77.6-147.2
				c2.3-1.5,3.2-4.4,2.5-7c-0.8-2.6-3.2-4.5-5.8-4.6c-2.9-0.1-5.5-0.2-7.8-0.2c-53.6,0-103.9,20.9-141.7,58.6
				c-37.9,37.7-58.7,88.1-58.7,141.6s20.9,103.9,58.6,141.7c37.8,37.8,88.2,58.6,141.7,58.6c50.8,0,99.2-19,136.4-53.7
				c2-1.8,2.6-4.8,1.4-7.3C414.8,396.3,412.2,394.7,409.5,395.1z"/>
		</g>
	</g>
</g>
</svg>
