<?xml version="1.0" encoding="utf-8"?>
<!-- Generator: Adobe Illustrator 26.0.1, SVG Export Plug-In . SVG Version: 6.00 Build 0)  -->
<svg version="1.1" id="Layer_1" xmlns="http://www.w3.org/2000/svg" xmlns:xlink="http://www.w3.org/1999/xlink" x="0px" y="0px"
	 viewBox="0 0 62 62.2" style="enable-background:new 0 0 62 62.2;" xml:space="preserve">
<style type="text/css">
	.st0{fill:#99A0AE;}
</style>
<path class="st0" d="M24.1,13.6c-4.8,0-9.4,1.9-12.8,5.3C7.9,22.3,6,26.9,6,31.6c0,4.8,1.9,9.4,5.3,12.8c3.4,3.4,8,5.3,12.8,5.3
	h19.4c1.8,0,3.5-0.4,5.1-1.1c1.6-0.7,3-1.8,4.2-3.1c1.2-1.3,2.1-2.8,2.6-4.5s0.7-3.4,0.5-5.2c-0.2-1.7-0.7-3.4-1.6-4.9
	c-0.9-1.5-2.1-2.8-3.5-3.9c-1.4-1-3-1.7-4.8-2.1c-1.7-0.4-3.5-0.4-5.2,0c-1.3-3.4-3.6-6.2-6.6-8.3C31.2,14.7,27.7,13.6,24.1,13.6z
	 M43.5,55.2H24.1c-4.1,0-8.1-1.1-11.7-3.1c-3.6-2-6.5-5-8.6-8.5C1.7,40.1,0.5,36,0.5,31.9c-0.1-4.1,1-8.2,3-11.7
	c2-3.6,4.9-6.6,8.4-8.7c3.5-2.1,7.5-3.3,11.6-3.4c4.1-0.1,8.2,0.9,11.8,2.8c3.6,1.9,6.7,4.8,8.8,8.3c4.7,0.1,9.2,2.1,12.5,5.6
	c3.3,3.4,5.1,8,5,12.8c-0.1,4.7-2,9.3-5.4,12.6C52.8,53.4,48.2,55.2,43.5,55.2L43.5,55.2z"/>
</svg>
