<?xml version="1.0" encoding="utf-8"?>
<!-- Generator: Adobe Illustrator 26.0.1, SVG Export Plug-In . SVG Version: 6.00 Build 0)  -->
<svg version="1.1" id="Layer_1" xmlns="http://www.w3.org/2000/svg" xmlns:xlink="http://www.w3.org/1999/xlink" x="0px" y="0px"
	 viewBox="0 0 21.7 20.8" style="enable-background:new 0 0 21.7 20.8;" xml:space="preserve">
<style type="text/css">
	.st0{fill:#335CFF;}
</style>
<path class="st0" d="M5.4,15.2c-1-0.6-1.8-1.4-2.5-2.4c-0.6-1-1-2.1-1.1-3.2C1.8,8.5,1.9,7.4,2.4,6.3c0.4-1.1,1.1-2,2-2.8
	c0.9-0.7,1.9-1.3,3-1.5c1.1-0.3,2.3-0.3,3.4,0c1.1,0.3,2.1,0.8,3,1.6c0.9,0.8,1.5,1.7,1.9,2.8c1.3-0.2,2.6,0,3.6,0.7s1.8,1.8,2.1,3
	c0.3,1.2,0.1,2.6-0.6,3.7c-0.7,1.1-1.7,1.9-2.9,2.3v-1.9c0.4-0.2,0.8-0.5,1.1-0.8s0.5-0.8,0.6-1.2c0.1-0.4,0.1-0.9,0-1.4
	c-0.1-0.5-0.3-0.9-0.5-1.3c-0.3-0.4-0.6-0.7-1-0.9c-0.4-0.2-0.8-0.4-1.3-0.4c-0.5,0-0.9,0-1.4,0.2c-0.4,0.2-0.8,0.4-1.1,0.7v0
	c0-0.9-0.2-1.8-0.7-2.6c-0.4-0.8-1.1-1.5-1.8-2C11.2,4,10.3,3.7,9.4,3.6C8.5,3.6,7.6,3.7,6.8,4.1C6,4.4,5.3,5,4.7,5.7
	c-0.5,0.7-0.9,1.6-1,2.4C3.6,9.1,3.6,10,3.9,10.8c0.3,0.8,0.8,1.6,1.5,2.2V15.2z M7.2,14.4H9V18H7.2V14.4z M14.4,14.4h1.8V18h-1.8
	V14.4z M10.8,17.1h1.8v3.6h-1.8V17.1z"/>
</svg>
