<?xml version="1.0" encoding="utf-8"?>
<!-- Generator: Adobe Illustrator 26.0.1, SVG Export Plug-In . SVG Version: 6.00 Build 0)  -->
<svg version="1.1" id="Layer_1" xmlns="http://www.w3.org/2000/svg" xmlns:xlink="http://www.w3.org/1999/xlink" x="0px" y="0px"
	 viewBox="0 0 22.1 21.2" style="enable-background:new 0 0 22.1 21.2;" xml:space="preserve">
<style type="text/css">
	.st0{fill:#335CFF;}
</style>
<path class="st0" d="M5.8,15.6c-1-0.6-1.8-1.4-2.5-2.4c-0.6-1-1-2.1-1.1-3.2C2.1,8.9,2.3,7.8,2.7,6.7c0.4-1.1,1.1-2,2-2.8
	c0.9-0.7,1.9-1.3,3-1.5c1.1-0.3,2.3-0.3,3.4,0c1.1,0.3,2.1,0.8,3,1.6c0.9,0.8,1.5,1.7,1.9,2.8c1.3-0.2,2.6,0,3.6,0.7s1.8,1.8,2.1,3
	c0.3,1.2,0.1,2.6-0.6,3.7c-0.7,1.1-1.7,1.9-2.9,2.3v-1.9c0.4-0.2,0.8-0.5,1.1-0.8s0.5-0.8,0.6-1.2c0.1-0.4,0.1-0.9,0-1.4
	c-0.1-0.5-0.3-0.9-0.5-1.3c-0.3-0.4-0.6-0.7-1-0.9c-0.4-0.2-0.8-0.4-1.3-0.4c-0.5,0-0.9,0-1.4,0.2c-0.4,0.2-0.8,0.4-1.1,0.7v0
	c0-0.9-0.2-1.8-0.7-2.6c-0.4-0.8-1.1-1.5-1.8-2C11.6,4.4,10.7,4.1,9.8,4C8.9,3.9,8,4.1,7.2,4.5C6.4,4.8,5.6,5.4,5.1,6.1
	c-0.5,0.7-0.9,1.6-1,2.4C3.9,9.5,4,10.4,4.3,11.2c0.3,0.8,0.8,1.6,1.5,2.2V15.6z M7.6,14.8h1.8v3.6H7.6V14.8z M14.8,14.8h1.8v3.6
	h-1.8V14.8z M11.2,17.5H13v3.6h-1.8V17.5z"/>
</svg>
