<?xml version="1.0" encoding="utf-8"?>
<!-- Generator: Adobe Illustrator 26.0.1, SVG Export Plug-In . SVG Version: 6.00 Build 0)  -->
<svg version="1.1" id="Layer_1" xmlns="http://www.w3.org/2000/svg" xmlns:xlink="http://www.w3.org/1999/xlink" x="0px" y="0px"
	 viewBox="0 0 30 30" style="enable-background:new 0 0 30 30;" xml:space="preserve">
<style type="text/css">
	.st0{fill:#717778;}
</style>
<g id="null_00000014612484165239862520000005456791640897362867_">
	<g id="Cloud__x2B__Snow">
		<g id="null">
			<path class="st0" d="M25,10.9c-0.6-4.9-3.8-8.5-8.8-8.5c-4.2,0-6.5,2.5-7.9,6.4C7.8,8.7,7.3,8.6,6.7,8.6C3,8.6,0,11.9,0,15.6
				c0,3.6,2.9,6.1,6.5,6.4h0.8v-1.6H6.5c-2.6-0.2-4.9-2.1-4.9-4.7c0-2.7,2.4-5.1,5.1-5.1c0.6,0,1.3,0.1,1.8,0.4l1,0.4l0.3-1
				c0.9-3.6,2.7-6.1,6.4-6.1c4.3,0,6.8,3.5,7,7.8l0,0.9l1.1-0.1c2.1,0,4,1.6,4,3.7c0,2.1-2,3.9-4.1,3.9h-2.4v1.6h2.4
				c3.1,0,5.7-2.4,5.7-5.5C30,13.5,27.8,11.2,25,10.9z M19.6,17.3l-0.8,0.5l0.1-0.8l-1.3-0.1l-0.2,1.8l-2.2,1.3v-2.7l1.4-1l-0.7-1.1
				l-0.6,0.5v-1H14v1l-0.6-0.5l-0.7,1.1l1.4,1v2.7l-2.2-1.3l-0.2-1.8L10.3,17l0.1,0.8l-0.8-0.5l-0.6,1.2l0.8,0.5L9,19.3l0.5,1.2
				l1.5-0.7l2.2,1.3l-2.2,1.3l-1.5-0.7L9,22.9l0.7,0.3l-0.8,0.5l0.6,1.2l0.8-0.5l-0.1,0.8l1.3,0.1l0.2-1.8l2.2-1.3V25l-1.4,1
				l0.7,1.1l0.6-0.5v1h1.3v-1l0.6,0.5l0.7-1.1l-1.4-1v-2.7l2.2,1.3l0.2,1.8l1.3-0.1l-0.1-0.8l0.8,0.5l0.6-1.2l-0.8-0.5l0.7-0.3
				l-0.5-1.2l-1.5,0.7l-2.2-1.3l2.2-1.3l1.5,0.7l0.5-1.2l-0.7-0.3l0.8-0.5L19.6,17.3z"/>
		</g>
	</g>
</g>
</svg>
