<svg width="20" height="19" viewBox="0 0 20 19" fill="none" xmlns="http://www.w3.org/2000/svg">
<path d="M3.69978 13.437C2.70383 12.8612 1.86035 12.0551 1.24 11.0863C0.619654 10.1174 0.240491 9.01407 0.134272 7.86856C0.0280535 6.72305 0.197872 5.56877 0.629504 4.50239C1.06114 3.43601 1.74201 2.48858 2.61511 1.73946C3.48821 0.990341 4.5281 0.461343 5.64768 0.196772C6.76727 -0.0677985 7.93396 -0.060238 9.05002 0.21882C10.1661 0.497879 11.199 1.04031 12.0623 1.80068C12.9257 2.56105 13.5942 3.51722 14.012 4.58911C15.2678 4.34087 16.5709 4.58877 17.6478 5.28076C18.7247 5.97275 19.4917 7.05503 19.7877 8.3004C20.0837 9.54578 19.8858 10.8574 19.2355 11.96C18.5851 13.0626 17.5329 13.8703 16.2998 14.2137V12.2967C16.7157 12.0993 17.0834 11.8132 17.3768 11.4584C17.6702 11.1036 17.8823 10.6888 17.9981 10.2431C18.1139 9.79753 18.1306 9.33195 18.0471 8.87918C17.9635 8.42641 17.7817 7.99746 17.5145 7.62253C17.2473 7.24761 16.9011 6.93582 16.5004 6.70913C16.0996 6.48243 15.6541 6.34634 15.1951 6.31043C14.736 6.27453 14.2747 6.33968 13.8436 6.5013C13.4125 6.66293 13.0221 6.9171 12.6998 7.24591V7.20001C12.6998 6.29925 12.4745 5.41279 12.0444 4.62136C11.6143 3.82992 10.993 3.15866 10.2372 2.66868C9.48132 2.17871 8.61492 1.88559 7.71685 1.81602C6.81878 1.74645 5.91758 1.90263 5.09529 2.27036C4.27301 2.63808 3.55578 3.20566 3.00891 3.92141C2.46203 4.63716 2.10289 5.47834 1.96419 6.36835C1.82548 7.25837 1.91162 8.16895 2.21475 9.01717C2.51789 9.86539 3.02839 10.6243 3.69978 11.2248V13.437ZM5.49978 12.6H7.29978V16.2H5.49978V12.6ZM12.6998 12.6H14.4998V16.2H12.6998V12.6ZM9.09978 15.3H10.8998V18.9H9.09978V15.3Z" fill="#335CFF"/>
</svg>
