<svg width="24" height="24" viewBox="0 0 24 24" fill="none" xmlns="http://www.w3.org/2000/svg">
<path d="M5.69978 16.437C4.70383 15.8612 3.86035 15.0551 3.24 14.0863C2.61965 13.1174 2.24049 12.0141 2.13427 10.8686C2.02805 9.72305 2.19787 8.56877 2.6295 7.50239C3.06114 6.43601 3.74201 5.48858 4.61511 4.73946C5.48821 3.99034 6.5281 3.46134 7.64768 3.19677C8.76727 2.9322 9.93396 2.93976 11.05 3.21882C12.1661 3.49788 13.199 4.04031 14.0623 4.80068C14.9257 5.56105 15.5942 6.51722 16.012 7.58911C17.2678 7.34087 18.5709 7.58877 19.6478 8.28076C20.7247 8.97275 21.4917 10.055 21.7877 11.3004C22.0837 12.5458 21.8858 13.8574 21.2355 14.96C20.5851 16.0626 19.5329 16.8703 18.2998 17.2137V15.2967C18.7157 15.0993 19.0834 14.8132 19.3768 14.4584C19.6702 14.1036 19.8823 13.6888 19.9981 13.2431C20.1139 12.7975 20.1306 12.332 20.0471 11.8792C19.9635 11.4264 19.7817 10.9975 19.5145 10.6225C19.2473 10.2476 18.9011 9.93582 18.5004 9.70913C18.0996 9.48243 17.6541 9.34634 17.1951 9.31043C16.736 9.27453 16.2747 9.33968 15.8436 9.5013C15.4125 9.66293 15.0221 9.9171 14.6998 10.2459V10.2C14.6998 9.29925 14.4745 8.41279 14.0444 7.62136C13.6143 6.82992 12.993 6.15866 12.2372 5.66868C11.4813 5.17871 10.6149 4.88559 9.71685 4.81602C8.81878 4.74645 7.91758 4.90263 7.09529 5.27036C6.27301 5.63808 5.55578 6.20566 5.00891 6.92141C4.46203 7.63716 4.10289 8.47834 3.96419 9.36835C3.82548 10.2584 3.91162 11.1689 4.21475 12.0172C4.51789 12.8654 5.02839 13.6243 5.69978 14.2248V16.437ZM7.49978 15.6H9.29978V19.2H7.49978V15.6ZM14.6998 15.6H16.4998V19.2H14.6998V15.6ZM11.0998 18.3H12.8998V21.9H11.0998V18.3Z" fill="#335CFF"/>
</svg>
