<?xml version="1.0" encoding="utf-8"?>
<!-- Generator: Adobe Illustrator 26.0.1, SVG Export Plug-In . SVG Version: 6.00 Build 0)  -->
<svg version="1.1" id="Layer_1" xmlns="http://www.w3.org/2000/svg" xmlns:xlink="http://www.w3.org/1999/xlink" x="0px" y="0px"
	 viewBox="0 0 30 30" style="enable-background:new 0 0 30 30;" xml:space="preserve">
<style type="text/css">
	.st0{fill:#F6B51E;}
</style>
<g id="null">
	<path class="st0" d="M15.2,21.9c3.7,0,6.7-2.9,6.7-6.7s-3.1-6.7-6.7-6.7s-6.7,2.9-6.7,6.7S11.5,21.9,15.2,21.9z M15.2,10.5
		c2.6,0,4.8,2.2,4.8,4.8c0,2.6-2.2,4.8-4.8,4.8s-4.8-2.2-4.8-4.8S12.6,10.5,15.2,10.5z"/>
	<path class="st0" d="M16.2,5.5V2.4c0-0.6-0.5-1-1-1s-1,0.5-1,1v3.1c0,0.6,0.5,1,1,1C15.8,6.4,16.2,6.1,16.2,5.5z"/>
	<path class="st0" d="M14.2,25v3.1c0,0.6,0.5,1,1,1s1-0.5,1-1V25c0-0.6-0.5-1-1-1S14.2,24.4,14.2,25z"/>
	<path class="st0" d="M22.8,9L25,6.9c0.3-0.3,0.3-1,0-1.4c-0.3-0.3-1-0.3-1.4,0l-2.2,2.2c-0.3,0.3-0.3,1,0,1.4
		c0.2,0.2,0.5,0.3,0.7,0.3C22.4,9.4,22.6,9.2,22.8,9L22.8,9z"/>
	<path class="st0" d="M5.5,25c0.2,0.2,0.5,0.3,0.7,0.3s0.5-0.1,0.7-0.3L9,22.8c0.3-0.3,0.3-1,0-1.4c-0.3-0.3-1-0.3-1.4,0l-2.2,2.2
		C5.1,24,5.1,24.7,5.5,25z"/>
	<path class="st0" d="M29,15.2c0-0.6-0.5-1-1-1H25c-0.6,0-1,0.5-1,1s0.5,1,1,1H28C28.6,16.2,29,15.8,29,15.2z"/>
	<path class="st0" d="M2.4,16.2h3.1c0.6,0,1-0.5,1-1s-0.5-1-1-1H2.4c-0.6,0-1,0.5-1,1C1.4,15.8,1.8,16.2,2.4,16.2z"/>
	<path class="st0" d="M24.3,25.2c0.2,0,0.5-0.1,0.7-0.3c0.3-0.3,0.3-1,0-1.4l-2.2-2.2c-0.3-0.3-1-0.3-1.4,0c-0.3,0.3-0.3,1,0,1.4
		l2.2,2.2C23.8,25.2,24.1,25.2,24.3,25.2L24.3,25.2z"/>
	<path class="st0" d="M9,9c0.3-0.3,0.3-1,0-1.4L6.8,5.5c-0.3-0.3-1-0.3-1.4,0c-0.3,0.3-0.3,1,0,1.4L7.6,9c0.2,0.2,0.5,0.3,0.7,0.3
		C8.5,9.4,8.9,9.2,9,9z"/>
</g>
</svg>
